<?xml version="1.0" encoding="UTF-8"?>
<svg width="400" height="200" xmlns="http://www.w3.org/2000/svg">
  <defs>
    <linearGradient id="bgGradient" x1="0%" y1="0%" x2="100%" y2="100%">
      <stop offset="0%" style="stop-color:#1e40af;stop-opacity:1" />
      <stop offset="100%" style="stop-color:#3b82f6;stop-opacity:1" />
    </linearGradient>
    <linearGradient id="textGradient" x1="0%" y1="0%" x2="100%" y2="100%">
      <stop offset="0%" style="stop-color:#ffffff;stop-opacity:1" />
      <stop offset="100%" style="stop-color:#e0e7ff;stop-opacity:1" />
    </linearGradient>
  </defs>
  
  <!-- Background -->
  <rect width="400" height="200" fill="url(#bgGradient)" rx="20" ry="20"/>
  
  <!-- Main text -->
  <text x="200" y="90" font-family="Arial, sans-serif" font-size="28" font-weight="bold" 
        text-anchor="middle" fill="url(#textGradient)">No Tiene Nombre</text>
  
  <!-- Subtitle -->
  <text x="200" y="120" font-family="Arial, sans-serif" font-size="14" 
        text-anchor="middle" fill="#e0e7ff">Podcast de IA en Español</text>
  
  <!-- Microphone icon -->
  <g transform="translate(30, 60)">
    <circle cx="15" cy="20" r="8" fill="none" stroke="#ffffff" stroke-width="2"/>
    <rect x="12" y="35" width="6" height="15" fill="#ffffff"/>
    <line x1="8" y1="50" x2="22" y2="50" stroke="#ffffff" stroke-width="2"/>
    <line x1="15" y1="50" x2="15" y2="55" stroke="#ffffff" stroke-width="2"/>
  </g>
  
  <!-- Sound waves -->
  <g transform="translate(320, 70)">
    <path d="M 10 20 Q 20 10 30 20 Q 20 30 10 20" fill="none" stroke="#ffffff" stroke-width="2" opacity="0.7"/>
    <path d="M 15 20 Q 22 15 29 20 Q 22 25 15 20" fill="none" stroke="#ffffff" stroke-width="1.5" opacity="0.5"/>
    <path d="M 20 20 Q 24 18 28 20 Q 24 22 20 20" fill="none" stroke="#ffffff" stroke-width="1" opacity="0.3"/>
  </g>
</svg>